<svg id="visual" viewBox="0 0 900 600" width="900" height="600" xmlns="http://www.w3.org/2000/svg" xmlns:xlink="http://www.w3.org/1999/xlink" version="1.1"><path d="M0 169L11.5 170C23 171 46 173 69 174C92 175 115 175 138.2 181C161.3 187 184.7 199 207.8 202C231 205 254 199 277 189C300 179 323 165 346 157C369 149 392 147 415.2 147C438.3 147 461.7 149 484.8 157C508 165 531 179 554 182C577 185 600 177 623 165C646 153 669 137 692.2 140C715.3 143 738.7 165 761.8 170C785 175 808 163 831 158C854 153 877 155 888.5 156L900 157L900 0L888.5 0C877 0 854 0 831 0C808 0 785 0 761.8 0C738.7 0 715.3 0 692.2 0C669 0 646 0 623 0C600 0 577 0 554 0C531 0 508 0 484.8 0C461.7 0 438.3 0 415.2 0C392 0 369 0 346 0C323 0 300 0 277 0C254 0 231 0 207.8 0C184.7 0 161.3 0 138.2 0C115 0 92 0 69 0C46 0 23 0 11.5 0L0 0Z" fill="#6198ff"></path><path d="M0 229L11.5 229C23 229 46 229 69 234C92 239 115 249 138.2 255C161.3 261 184.7 263 207.8 265C231 267 254 269 277 260C300 251 323 231 346 225C369 219 392 227 415.2 230C438.3 233 461.7 231 484.8 234C508 237 531 245 554 244C577 243 600 233 623 227C646 221 669 219 692.2 227C715.3 235 738.7 253 761.8 254C785 255 808 239 831 231C854 223 877 223 888.5 223L900 223L900 155L888.5 154C877 153 854 151 831 156C808 161 785 173 761.8 168C738.7 163 715.3 141 692.2 138C669 135 646 151 623 163C600 175 577 183 554 180C531 177 508 163 484.8 155C461.7 147 438.3 145 415.2 145C392 145 369 147 346 155C323 163 300 177 277 187C254 197 231 203 207.8 200C184.7 197 161.3 185 138.2 179C115 173 92 173 69 172C46 171 23 169 11.5 168L0 167Z" fill="#4385ff"></path><path d="M0 403L11.5 402C23 401 46 399 69 397C92 395 115 393 138.2 389C161.3 385 184.7 379 207.8 380C231 381 254 389 277 391C300 393 323 389 346 389C369 389 392 393 415.2 392C438.3 391 461.7 385 484.8 383C508 381 531 383 554 375C577 367 600 349 623 353C646 357 669 383 692.2 394C715.3 405 738.7 401 761.8 398C785 395 808 393 831 384C854 375 877 359 888.5 351L900 343L900 221L888.5 221C877 221 854 221 831 229C808 237 785 253 761.8 252C738.7 251 715.3 233 692.2 225C669 217 646 219 623 225C600 231 577 241 554 242C531 243 508 235 484.8 232C461.7 229 438.3 231 415.2 228C392 225 369 217 346 223C323 229 300 249 277 258C254 267 231 265 207.8 263C184.7 261 161.3 259 138.2 253C115 247 92 237 69 232C46 227 23 227 11.5 227L0 227Z" fill="#2071ff"></path><path d="M0 469L11.5 475C23 481 46 493 69 493C92 493 115 481 138.2 475C161.3 469 184.7 469 207.8 471C231 473 254 477 277 479C300 481 323 481 346 481C369 481 392 481 415.2 480C438.3 479 461.7 477 484.8 476C508 475 531 475 554 471C577 467 600 459 623 464C646 469 669 487 692.2 491C715.3 495 738.7 485 761.8 481C785 477 808 479 831 477C854 475 877 469 888.5 466L900 463L900 341L888.5 349C877 357 854 373 831 382C808 391 785 393 761.8 396C738.7 399 715.3 403 692.2 392C669 381 646 355 623 351C600 347 577 365 554 373C531 381 508 379 484.8 381C461.7 383 438.3 389 415.2 390C392 391 369 387 346 387C323 387 300 391 277 389C254 387 231 379 207.8 378C184.7 377 161.3 383 138.2 387C115 391 92 393 69 395C46 397 23 399 11.5 400L0 401Z" fill="#0061f1"></path><path d="M0 547L11.5 548C23 549 46 551 69 551C92 551 115 549 138.2 547C161.3 545 184.7 543 207.8 542C231 541 254 541 277 543C300 545 323 549 346 550C369 551 392 549 415.2 545C438.3 541 461.7 535 484.8 533C508 531 531 533 554 533C577 533 600 531 623 534C646 537 669 545 692.2 546C715.3 547 738.7 541 761.8 537C785 533 808 531 831 532C854 533 877 537 888.5 539L900 541L900 461L888.5 464C877 467 854 473 831 475C808 477 785 475 761.8 479C738.7 483 715.3 493 692.2 489C669 485 646 467 623 462C600 457 577 465 554 469C531 473 508 473 484.8 474C461.7 475 438.3 477 415.2 478C392 479 369 479 346 479C323 479 300 479 277 477C254 475 231 471 207.8 469C184.7 467 161.3 467 138.2 473C115 479 92 491 69 491C46 491 23 479 11.5 473L0 467Z" fill="#0056d6"></path><path d="M0 601L11.5 601C23 601 46 601 69 601C92 601 115 601 138.2 601C161.3 601 184.7 601 207.8 601C231 601 254 601 277 601C300 601 323 601 346 601C369 601 392 601 415.2 601C438.3 601 461.7 601 484.8 601C508 601 531 601 554 601C577 601 600 601 623 601C646 601 669 601 692.2 601C715.3 601 738.7 601 761.8 601C785 601 808 601 831 601C854 601 877 601 888.5 601L900 601L900 539L888.5 537C877 535 854 531 831 530C808 529 785 531 761.8 535C738.7 539 715.3 545 692.2 544C669 543 646 535 623 532C600 529 577 531 554 531C531 531 508 529 484.8 531C461.7 533 438.3 539 415.2 543C392 547 369 549 346 548C323 547 300 543 277 541C254 539 231 539 207.8 540C184.7 541 161.3 543 138.2 545C115 547 92 549 69 549C46 549 23 547 11.5 546L0 545Z" fill="#004cbb"></path></svg>